<mxfile host="app.diagrams.net" modified="2024-02-08T08:49:43.012Z" agent="Mozilla/5.0 (Macintosh; Intel Mac OS X 10_15_7) AppleWebKit/537.36 (KHTML, like Gecko) Chrome/121.0.0.0 Safari/537.36" etag="o7bfkR4eqYs5X01LKRZg" version="23.1.1" type="device">
  <diagram name="Pagina-1" id="gUR3_5AiqI5OnBHpYnXR">
    <mxGraphModel dx="611" dy="394" grid="1" gridSize="10" guides="1" tooltips="1" connect="1" arrows="1" fold="1" page="1" pageScale="1" pageWidth="827" pageHeight="1169" math="0" shadow="0">
      <root>
        <mxCell id="0" />
        <mxCell id="1" parent="0" />
        <mxCell id="kvyfHLsvkOcZPDmx2X8h-4" style="edgeStyle=orthogonalEdgeStyle;rounded=0;orthogonalLoop=1;jettySize=auto;html=1;exitX=0.5;exitY=1;exitDx=0;exitDy=0;entryX=0.5;entryY=0;entryDx=0;entryDy=0;" edge="1" parent="1" source="kvyfHLsvkOcZPDmx2X8h-1" target="kvyfHLsvkOcZPDmx2X8h-5">
          <mxGeometry relative="1" as="geometry" />
        </mxCell>
        <mxCell id="kvyfHLsvkOcZPDmx2X8h-1" value="Start" style="rounded=1;whiteSpace=wrap;html=1;fillColor=#e1d5e7;strokeColor=#9673a6;" vertex="1" parent="1">
          <mxGeometry x="150" y="40" width="120" height="30" as="geometry" />
        </mxCell>
        <mxCell id="kvyfHLsvkOcZPDmx2X8h-2" value="Einde" style="whiteSpace=wrap;html=1;fillColor=#e1d5e7;strokeColor=#9673a6;rounded=1;" vertex="1" parent="1">
          <mxGeometry x="150" y="270" width="120" height="30" as="geometry" />
        </mxCell>
        <mxCell id="kvyfHLsvkOcZPDmx2X8h-6" style="edgeStyle=orthogonalEdgeStyle;rounded=0;orthogonalLoop=1;jettySize=auto;html=1;exitX=0.5;exitY=1;exitDx=0;exitDy=0;entryX=0.5;entryY=0;entryDx=0;entryDy=0;" edge="1" parent="1" source="kvyfHLsvkOcZPDmx2X8h-5" target="kvyfHLsvkOcZPDmx2X8h-7">
          <mxGeometry relative="1" as="geometry" />
        </mxCell>
        <mxCell id="kvyfHLsvkOcZPDmx2X8h-5" value="Haal kaarten uit de doos" style="rounded=0;whiteSpace=wrap;html=1;fillColor=#dae8fc;strokeColor=#6c8ebf;" vertex="1" parent="1">
          <mxGeometry x="150" y="100" width="120" height="60" as="geometry" />
        </mxCell>
        <mxCell id="kvyfHLsvkOcZPDmx2X8h-8" style="edgeStyle=orthogonalEdgeStyle;rounded=0;orthogonalLoop=1;jettySize=auto;html=1;exitX=0.5;exitY=1;exitDx=0;exitDy=0;entryX=0.5;entryY=0;entryDx=0;entryDy=0;" edge="1" parent="1" source="kvyfHLsvkOcZPDmx2X8h-7" target="kvyfHLsvkOcZPDmx2X8h-2">
          <mxGeometry relative="1" as="geometry" />
        </mxCell>
        <mxCell id="kvyfHLsvkOcZPDmx2X8h-7" value="Kaarten schudden" style="rounded=0;whiteSpace=wrap;html=1;fillColor=#dae8fc;strokeColor=#6c8ebf;" vertex="1" parent="1">
          <mxGeometry x="150" y="190" width="120" height="60" as="geometry" />
        </mxCell>
      </root>
    </mxGraphModel>
  </diagram>
</mxfile>
